# xmcd CD database file
#
# Track frame offsets:
#	150
#	12078
#	32424
#	47806
#	65659
#	78600
#	95904
#	107954
#	121003
#	137616
#
# Disc length: 2015 seconds
#
# Revision: 1
# Processed by: cddbd v1.5.2PL0 Copyright (c) Steve Scherf et al.
# Submitted via: CDex 1.51
#
DISCID=8207dd0a
DTITLE=Lloyd Green - Revisited
DYEAR=2003
DGENRE=Instrumental
TTITLE0=Jukebox Charlie
TTITLE1=Calling You
TTITLE2=Borrowed Angel
TTITLE3=So Sad (with Junior Brown)
TTITLE4=100 Years From Now (with Gillian Welch and David Rawlings)
TTITLE5=Ashokan Farewell
TTITLE6=I'm Looking Through You
TTITLE7=God Only Knows
TTITLE8=Farewell Party
TTITLE9=Hogan's Dream
EXTD=YEAR: 2003
EXTT0=
EXTT1=
EXTT2=
EXTT3=
EXTT4=
EXTT5=
EXTT6=
EXTT7=
EXTT8=
EXTT9=
PLAYORDER=
